<?xml version="1.0" encoding="UTF-8" standalone="no"?>
<!-- Created with Inkscape (http://www.inkscape.org/) -->

<svg
   width="1024"
   height="1024"
   viewBox="0 0 270.93332 270.93334"
   version="1.1"
   id="svg1"
   xml:space="preserve"
   sodipodi:docname="raml_inverted_text_to_path.svg"
   inkscape:version="1.3.2 (091e20e, 2023-11-25, custom)"
   xmlns:inkscape="http://www.inkscape.org/namespaces/inkscape"
   xmlns:sodipodi="http://sodipodi.sourceforge.net/DTD/sodipodi-0.dtd"
   xmlns:xlink="http://www.w3.org/1999/xlink"
   xmlns="http://www.w3.org/2000/svg"
   xmlns:svg="http://www.w3.org/2000/svg"><sodipodi:namedview
     id="namedview1"
     pagecolor="#000000"
     bordercolor="#000000"
     borderopacity="0.25"
     inkscape:showpageshadow="2"
     inkscape:pageopacity="0.0"
     inkscape:pagecheckerboard="0"
     inkscape:deskcolor="#d1d1d1"
     inkscape:document-units="mm"
     inkscape:zoom="0.70710678"
     inkscape:cx="192.33304"
     inkscape:cy="608.81894"
     inkscape:window-width="2560"
     inkscape:window-height="1369"
     inkscape:window-x="2552"
     inkscape:window-y="-8"
     inkscape:window-maximized="1"
     inkscape:current-layer="layer2"
     showguides="true"><sodipodi:guide
       position="118.62276,157.88091"
       orientation="1,0"
       id="guide1"
       inkscape:locked="false" /></sodipodi:namedview><defs
     id="defs1"><color-profile
       name="Adobe-RGB-1998"
       xlink:href="../../../../../../../WINDOWS/system32/spool/drivers/color/AdobeRGB1998.icc"
       id="color-profile2" /><rect
       x="186.76265"
       y="745.69726"
       width="125.86178"
       height="14.886874"
       id="rect60" /><inkscape:path-effect
       effect="bspline"
       id="path-effect38"
       is_visible="true"
       lpeversion="1.3"
       weight="33.333333"
       steps="2"
       helper_size="0"
       apply_no_weight="true"
       apply_with_weight="true"
       only_selected="false"
       uniform="false" /><inkscape:path-effect
       effect="bspline"
       id="path-effect37"
       is_visible="true"
       lpeversion="1.3"
       weight="33.333333"
       steps="2"
       helper_size="0"
       apply_no_weight="true"
       apply_with_weight="true"
       only_selected="false"
       uniform="false" /><inkscape:path-effect
       effect="bspline"
       id="path-effect36"
       is_visible="true"
       lpeversion="1.3"
       weight="33.333333"
       steps="2"
       helper_size="0"
       apply_no_weight="true"
       apply_with_weight="true"
       only_selected="false"
       uniform="false" /></defs><g
     inkscape:groupmode="layer"
     id="layer2"
     inkscape:label="Ebene 2"><g
       id="g58"
       inkscape:label="Edges"
       style="display:inline;fill:#ffffff;fill-opacity:1"><path
         style="fill:#ffffff;fill-opacity:1;stroke-width:0.264583"
         d="m 100.70846,89.250077 0.17904,0.04476 10.92127,11.055553 1.60015,-3.815736 -10.30583,-10.037275 z"
         id="path46" /><path
         style="fill:#ffffff;fill-opacity:1;stroke-width:0.264583"
         d="m 123.6234,77.794757 -5.0793,17.385102 3.67089,0.750127 5.08051,-17.153588 -3.65628,-1.219015 0.0316,0.316497 z"
         id="path47"
         sodipodi:nodetypes="ccccccc" /><path
         style="fill:#ffffff;fill-opacity:1;stroke-width:0.264583"
         d="m 123.8766,98.525255 16.2679,-8.703644 2.02953,3.212436 -1.45984,0.902012 -14.85099,8.115181 z"
         id="path48" /><path
         style="fill:#ffffff;fill-opacity:1;stroke-width:0.264583"
         d="m 134.41223,72.107257 10.96603,9.354699 -3.08839,2.640798 -9.98133,-8.772824 z"
         id="path49" /><path
         style="fill:#ffffff;fill-opacity:1;stroke-width:0.264583"
         d="m 152.203,82.605498 6.32993,-4.1461 2.02557,3.41816 -0.44309,0.253195 -6.26663,4.272698 z"
         id="path50" /><path
         style="fill:#ffffff;fill-opacity:1;stroke-width:0.264583"
         d="m 160.78005,58.520139 3.98785,10.444374 -3.35486,0.88619 -4.17775,-10.982418 z"
         id="path51" /><path
         style="fill:#ffffff;fill-opacity:1;stroke-width:0.264583"
         d="m 150.62052,53.804348 -17.62883,11.298912 1.70908,3.386508 17.81873,-11.362211 z"
         id="path52" /><path
         style="fill:#ffffff;fill-opacity:1;stroke-width:0.264583"
         d="m 151.09527,47.347825 -17.31234,-9.08344 -0.28485,4.1461 16.48945,8.798595 z"
         id="path53" /><path
         style="fill:#ffffff;fill-opacity:1;stroke-width:0.264583"
         d="m 120.36899,40.193867 -14.55797,9.309936 2.08252,3.066209 14.27398,-8.703644 z"
         id="path54" /><path
         style="fill:#ffffff;fill-opacity:1;stroke-width:0.264583"
         d="m 107.76694,55.829922 14.49553,9.589836 -2.08888,3.038361 -14.43222,-9.241687 z"
         id="path55" /><path
         style="fill:#ffffff;fill-opacity:1;stroke-width:0.264583"
         d="m 125.77557,46.303387 0.1899,16.552751 3.63971,-0.1266 -0.22155,-16.078004 z"
         id="path56" /><path
         style="fill:#ffffff;fill-opacity:1;stroke-width:0.264583"
         d="m 97.639065,61.336956 -2.468669,15.065216 3.639706,0.1899 2.500318,-15.350064 -3.892902,-0.03165 z"
         id="path57" /><path
         style="fill:#ffffff;fill-opacity:1;stroke-width:0.264583"
         d="m 102.44981,78.744246 17.97698,-7.247763 1.10773,3.481459 -17.91368,7.437659 z"
         id="path58" /><ellipse
         style="display:inline;fill:#ffffff;fill-opacity:1;stroke-width:0.338378"
         id="path44"
         cx="118.58997"
         cy="134.71841"
         rx="1.9299999"
         ry="1.4084079" /><rect
         style="display:inline;fill:#ffffff;fill-opacity:1;stroke-width:0.269635"
         id="rect44"
         width="3.8599999"
         height="24.083424"
         x="116.66048"
         y="110.64991" /></g><path
       id="path29"
       style="display:inline;fill:#ffffff;fill-opacity:1;stroke:none"
       d="m 133.07244,17.311088 c -1.54003,-0.04696 -3.08565,-0.04577 -4.63279,0.0015 -12.01902,0.369135 -24.26533,3.727354 -34.310568,11.011215 C 76.438223,41.15154 69.128975,64.956691 73.12778,87.077322 c 2.57472,14.242868 11.886995,23.515618 17.234607,36.210198 4.341472,10.30607 1.814272,21.23053 -0.614433,31.71692 -0.566232,2.44482 -2.931528,8.75572 0.953431,9.36119 3.499787,0.54546 3.977508,-6.05104 4.560962,-8.56795 2.187798,-9.43803 4.643501,-19.68684 2.178678,-29.33827 C 94.31584,114.22243 85.045771,105.64309 80.800697,93.949304 71.55033,68.467556 82.418324,39.451999 105.64724,28.501619 c 24.2681,-11.440237 59.51237,-5.846524 72.21213,21.572844 2.67718,5.780114 4.66617,12.789198 4.72426,19.294429 0.0389,4.358209 -1.55675,8.335018 -0.36742,12.686565 1.42544,5.215265 5.11754,9.742051 7.78247,14.27303 0.93924,1.596895 2.94619,3.837123 3.02463,5.798093 0.0639,1.59741 -1.69806,2.17795 -2.82464,2.5647 -2.31587,0.79504 -5.06047,1.69921 -5.69216,4.58887 -0.70872,3.24207 2.15483,5.47933 1.99213,8.4553 -0.11597,2.1211 -2.66767,2.73046 -2.99568,4.76663 -0.27648,1.71641 1.36533,2.85861 1.23868,4.48603 -0.15274,1.96274 -2.25714,3.51576 -2.67529,5.55057 -0.66565,3.2391 0.74041,6.56186 -0.33383,9.77873 -1.72142,5.15488 -7.86056,4.36488 -11.87524,4.23282 -9.48265,-0.31194 -20.54297,-3.77196 -24.07398,8.98291 -0.5536,1.99973 -1.71824,5.04866 -1.1219,7.12515 0.64238,2.2368 3.29145,2.61216 4.52737,0.73794 2.49181,-3.7787 1.33117,-10.68765 6.94428,-11.70265 8.96928,-1.62189 25.7317,6.1835 30.49375,-6.20375 1.41093,-3.67021 0.15114,-7.15956 0.75189,-10.83707 0.75684,-4.63294 5.09702,-6.19008 2.08463,-11.36519 5.6782,-3.82433 -0.34037,-7.6312 0.86558,-12.02408 0.35747,-1.30214 2.54805,-1.53279 3.54552,-1.92753 2.05942,-0.81499 3.90498,-2.23935 4.66018,-4.54959 1.10024,-3.36578 -0.70619,-6.529357 -2.3921,-9.251116 -2.86736,-4.628965 -7.42058,-9.926186 -8.83822,-15.329814 -0.86647,-3.302574 0.59059,-6.716344 0.67696,-10.043831 0.13345,-5.140998 -0.90967,-10.458238 -2.36368,-15.329814 C 178.04339,29.454978 156.1734,18.015448 133.07244,17.311088 Z"
       inkscape:label="Head"
       sodipodi:nodetypes="scsssssccscsscsssssssssssssssscssscssss" /><g
       id="g36"
       inkscape:label="Neurons"
       style="display:inline"><circle
         style="fill:#ee5d3e;fill-opacity:1;stroke-width:0.28604"
         id="path35"
         cx="118.51408"
         cy="103.3218"
         r="8.5"
         inkscape:label="Neuron 1" /><circle
         style="display:inline;fill:#009fb3;fill-opacity:1;stroke-width:0.28604"
         id="path35-6"
         cx="96.401138"
         cy="82.919533"
         r="8.5"
         inkscape:label="Neuron 2" /><circle
         style="display:inline;fill:#f6a525;fill-opacity:1;stroke-width:0.28604"
         id="path35-6-1"
         cx="100.72436"
         cy="54.014931"
         r="8.5"
         inkscape:label="Neuron 3" /><circle
         style="display:inline;fill:#ee5d3e;fill-opacity:1;stroke-width:0.28604"
         id="path35-6-1-0"
         cx="127.25178"
         cy="38.988659"
         r="8.5"
         inkscape:label="Neuron 4" /><circle
         style="display:inline;fill:#009fb3;fill-opacity:1;stroke-width:0.28604"
         id="path35-6-1-0-4"
         cx="157.57637"
         cy="51.274105"
         r="8.5"
         inkscape:label="Neuron 5" /><circle
         style="display:inline;fill:#ee5d3e;fill-opacity:1;stroke-width:0.28604"
         id="path35-6-1-0-4-2"
         cx="165.98866"
         cy="76.359932"
         r="8.5"
         inkscape:label="Neuron 6" /><circle
         style="display:inline;fill:#f6a525;fill-opacity:1;stroke-width:0.28604"
         id="path35-6-1-0-4-2-9"
         cx="147.52071"
         cy="89.133644"
         r="8.5"
         inkscape:label="Neuron 7" /><circle
         style="display:inline;fill:#ee5d3e;fill-opacity:1;stroke-width:0.28604"
         id="path35-6-1-0-4-2-9-0"
         cx="127.88731"
         cy="70.391678"
         r="8.5"
         inkscape:label="Neuron 8" /></g><g
       id="g1"
       inkscape:label="Text"
       style="fill:#01385f;fill-opacity:1;stroke:#006eab;stroke-opacity:1;stroke-width:0.8;stroke-dasharray:none"><path
         style="font-weight:bold;font-size:17.6389px;font-family:'New Order';-inkscape-font-specification:'New Order Bold';fill:#ffffff;stroke:#808080"
         d="m 42.12939,171.39954 q 0,-0.48231 -0.198093,-0.82682 -0.198093,-0.34451 -0.680407,-0.5426 -0.335897,-0.13781 -0.78376,-0.16364 -0.447863,-0.0345 -1.042142,-0.0345 h -1.197171 v 3.45371 h 1.016303 q 0.792373,0 1.326363,-0.0775 0.53399,-0.0775 0.895726,-0.35312 0.344509,-0.267 0.499539,-0.58567 0.163642,-0.32728 0.163642,-0.86989 z m 5.159034,8.89697 h -4.039377 l -3.496775,-4.70256 h -1.524455 v 4.70256 h -3.290069 v -12.82438 h 5.546608 q 1.136882,0 1.955093,0.12919 0.81821,0.12919 1.533068,0.55983 0.723471,0.43064 1.145495,1.11966 0.430637,0.68041 0.430637,1.71393 0,1.42111 -0.663181,2.31683 -0.654568,0.89573 -1.877578,1.49001 z m 10.722867,0 h -9.275926 v -12.82438 h 9.275926 v 2.48047 h -5.985857 v 2.21348 h 5.55522 v 2.48047 h -5.55522 v 3.16949 h 5.985857 z m 8.569682,0.24977 q -1.429716,0 -2.644113,-0.42203 -1.205784,-0.42202 -2.075671,-1.25746 -0.869887,-0.83543 -1.352201,-2.08428 -0.473701,-1.24885 -0.473701,-2.88527 0,-1.52446 0.456475,-2.76469 0.456476,-1.24024 1.326363,-2.12735 0.835436,-0.85266 2.067059,-1.31775 1.240235,-0.46509 2.704402,-0.46509 0.809598,0 1.455553,0.0947 0.654569,0.0861 1.205785,0.23255 0.577053,0.16364 1.042142,0.37034 0.473701,0.1981 0.826823,0.37035 v 3.1092 h -0.378961 q -0.241156,-0.2067 -0.611504,-0.49092 -0.361736,-0.28422 -0.826824,-0.55983 -0.473701,-0.27561 -1.024917,-0.46509 -0.551215,-0.18948 -1.179946,-0.18948 -0.697632,0 -1.326362,0.22393 -0.628731,0.21532 -1.162721,0.72347 -0.508152,0.49093 -0.826823,1.30053 -0.310059,0.80959 -0.310059,1.9637 0,1.20579 0.335897,2.01538 0.34451,0.8096 0.861275,1.27469 0.525377,0.4737 1.171333,0.68041 0.645956,0.19809 1.274686,0.19809 0.602892,0 1.188559,-0.18087 0.594279,-0.18086 1.093818,-0.49092 0.422025,-0.24977 0.78376,-0.53399 0.361735,-0.28422 0.594279,-0.49093 h 0.34451 v 3.06614 q -0.482314,0.21532 -0.921564,0.4048 -0.439249,0.18948 -0.921563,0.32728 -0.628731,0.18087 -1.179946,0.27561 -0.551216,0.0947 -1.515843,0.0947 z m 16.243636,-0.24977 h -9.275926 v -12.82438 h 9.275926 v 2.48047 h -5.985857 v 2.21348 h 5.55522 v 2.48047 h -5.55522 v 3.16949 h 5.985857 z m 14.434959,0 h -3.186715 l -5.443255,-8.80223 v 8.80223 h -3.031686 v -12.82438 h 3.95325 l 4.67672,7.34667 v -7.34667 h 3.031686 z M 110.56626,169.9526 h -4.00493 v 10.34391 h -3.30729 V 169.9526 h -4.004925 v -2.48047 h 11.317145 z m 19.8696,10.34391 h -3.41926 l -0.88711,-2.59244 h -4.75424 l -0.88711,2.59244 h -3.33313 l 4.737,-12.82438 h 3.80684 z m -5.10736,-4.94372 -1.57613,-4.5992 -1.57613,4.5992 z m 19.06862,-1.45555 q 0,1.79145 -0.81821,3.21255 -0.81821,1.41249 -2.06706,2.17041 -0.93879,0.56845 -2.05845,0.79238 -1.11965,0.22393 -2.65272,0.22393 h -4.52169 v -12.82438 h 4.65088 q 1.56752,0 2.7044,0.267 1.13688,0.25838 1.91203,0.74069 1.32636,0.8096 2.08429,2.18764 0.76653,1.36943 0.76653,3.22978 z m -3.41926,-0.0258 q 0,-1.26607 -0.46509,-2.1618 -0.45647,-0.90434 -1.45555,-1.41249 -0.50815,-0.24977 -1.04214,-0.33589 -0.52538,-0.0947 -1.59336,-0.0947 h -0.83544 v 8.02707 h 0.83544 q 1.17994,0 1.73116,-0.10335 0.55122,-0.11197 1.07659,-0.39619 0.90434,-0.51676 1.32637,-1.37804 0.42202,-0.86988 0.42202,-2.14457 z m 17.57,-6.39927 -4.67672,12.82438 h -3.70348 l -4.67672,-12.82438 h 3.47093 l 3.10059,9.00893 3.10059,-9.00893 z m 13.69426,12.82438 h -3.41926 l -0.88711,-2.59244 h -4.75423 l -0.88712,2.59244 h -3.33313 l 4.73701,-12.82438 h 3.80683 z m -5.10735,-4.94372 -1.57614,-4.5992 -1.57613,4.5992 z m 18.61214,4.94372 h -3.18671 l -5.44326,-8.80223 v 8.80223 h -3.03169 v -12.82438 h 3.95325 l 4.67672,7.34667 v -7.34667 h 3.03169 z m 9.06922,0.24977 q -1.42972,0 -2.64412,-0.42203 -1.20578,-0.42202 -2.07567,-1.25746 -0.86989,-0.83543 -1.3522,-2.08428 -0.4737,-1.24885 -0.4737,-2.88527 0,-1.52446 0.45648,-2.76469 0.45647,-1.24024 1.32636,-2.12735 0.83543,-0.85266 2.06706,-1.31775 1.24023,-0.46509 2.7044,-0.46509 0.8096,0 1.45555,0.0947 0.65457,0.0861 1.20579,0.23255 0.57705,0.16364 1.04214,0.37034 0.4737,0.1981 0.82682,0.37035 v 3.1092 h -0.37896 q -0.24116,-0.2067 -0.6115,-0.49092 -0.36174,-0.28422 -0.82683,-0.55983 -0.4737,-0.27561 -1.02491,-0.46509 -0.55122,-0.18948 -1.17995,-0.18948 -0.69763,0 -1.32636,0.22393 -0.62873,0.21532 -1.16272,0.72347 -0.50815,0.49093 -0.82683,1.30053 -0.31005,0.80959 -0.31005,1.9637 0,1.20579 0.33589,2.01538 0.34451,0.8096 0.86128,1.27469 0.52537,0.4737 1.17133,0.68041 0.64596,0.19809 1.27469,0.19809 0.60289,0 1.18855,-0.18087 0.59428,-0.18086 1.09382,-0.49092 0.42203,-0.24977 0.78376,-0.53399 0.36174,-0.28422 0.59428,-0.49093 h 0.34451 v 3.06614 q -0.48231,0.21532 -0.92156,0.4048 -0.43925,0.18948 -0.92156,0.32728 -0.62874,0.18087 -1.17995,0.27561 -0.55122,0.0947 -1.51584,0.0947 z m 16.24363,-0.24977 h -9.27593 v -12.82438 h 9.27593 v 2.48047 h -5.98586 v 2.21348 h 5.55522 v 2.48047 h -5.55522 v 3.16949 h 5.98586 z m 13.03969,-4.03077 q 0,1.89481 -1.61058,3.08337 -1.60197,1.17994 -4.35805,1.17994 -1.59336,0 -2.78192,-0.2756 -1.17995,-0.28423 -2.21347,-0.71486 v -3.07475 h 0.36173 q 1.02492,0.81821 2.29099,1.25746 1.27469,0.43925 2.44602,0.43925 0.30145,0 0.79237,-0.0517 0.49093,-0.0517 0.80099,-0.17225 0.37896,-0.15503 0.62012,-0.38758 0.24977,-0.23254 0.24977,-0.68902 0,-0.42202 -0.36174,-0.72347 -0.35312,-0.31006 -1.04214,-0.4737 -0.72347,-0.17225 -1.53307,-0.31867 -0.80099,-0.15503 -1.50723,-0.38757 -1.6192,-0.52538 -2.33405,-1.42111 -0.70625,-0.90433 -0.70625,-2.23931 0,-1.79145 1.60197,-2.91972 1.61058,-1.13688 4.13412,-1.13688 1.26607,0 2.49769,0.24977 1.24024,0.24115 2.14458,0.6115 v 2.95417 h -0.35313 q -0.77514,-0.62011 -1.90341,-1.03353 -1.11966,-0.42202 -2.29099,-0.42202 -0.41341,0 -0.82683,0.0603 -0.40479,0.0517 -0.78376,0.20671 -0.33589,0.12919 -0.57705,0.39618 -0.24116,0.25838 -0.24116,0.59428 0,0.50815 0.38758,0.78376 0.38757,0.267 1.46416,0.49093 0.70625,0.14641 1.35221,0.28422 0.65456,0.1378 1.40387,0.37896 1.47278,0.48231 2.17041,1.31775 0.70625,0.82682 0.70625,2.15318 z m 15.22734,4.03077 h -7.51032 v -2.27377 h 2.10151 v -8.27684 h -2.10151 v -2.27377 h 7.51032 v 2.27377 h -2.10151 v 8.27684 h 2.10151 z m 14.35744,0 h -3.18672 l -5.44325,-8.80223 v 8.80223 h -3.03169 v -12.82438 h 3.95325 l 4.67672,7.34667 v -7.34667 h 3.03169 z"
         id="text58"
         transform="scale(0.93871346,1.0652878)"
         aria-label="RECENT ADVANCES IN&#10;&#10;" /><g
         id="text62"
         style="font-weight:bold;font-size:28.9278px;font-family:'New Order';-inkscape-font-specification:'New Order Bold';text-align:center;letter-spacing:0px;word-spacing:0px;text-anchor:middle;fill:#ffffff;stroke:#808080"
         transform="scale(0.97986071,1.0205532)"
         aria-label="MACHINE&#10;LEARNING"><path
           d="M 85.190743,215.46663 H 79.79503 V 201.3841 l -3.898473,9.13881 h -3.743099 l -3.898473,-9.13881 v 14.08253 h -5.113214 v -21.03198 h 6.299706 l 4.731842,10.5513 4.717718,-10.5513 h 6.299706 z m 24.803327,0 h -5.60758 l -1.45487,-4.2516 h -7.796946 l -1.454865,4.2516 h -5.466337 l 7.768696,-21.03198 h 6.243212 z m -8.37607,-8.1077 -2.584853,-7.5427 -2.584857,7.5427 z m 20.90486,8.51732 q -2.34473,0 -4.33634,-0.69212 -1.97749,-0.69212 -3.40411,-2.06224 -1.42661,-1.37011 -2.21761,-3.41822 -0.77687,-2.04811 -0.77687,-4.73185 0,-2.5001 0.74862,-4.53409 0.74862,-2.03399 2.17524,-3.48885 1.37012,-1.39837 3.38998,-2.16111 2.03398,-0.76275 4.43522,-0.76275 1.32774,0 2.3871,0.15538 1.0735,0.14125 1.97749,0.38137 0.94637,0.26837 1.70911,0.60737 0.77687,0.32487 1.35599,0.60737 v 5.09909 h -0.62149 q -0.3955,-0.339 -1.00287,-0.80512 -0.59325,-0.46612 -1.35599,-0.91812 -0.77687,-0.45199 -1.68086,-0.76274 -0.904,-0.31075 -1.93512,-0.31075 -1.14411,0 -2.17523,0.36725 -1.03112,0.35312 -1.90686,1.18649 -0.83337,0.80512 -1.35599,2.13286 -0.5085,1.32774 -0.5085,3.22048 0,1.97749 0.55087,3.30523 0.565,1.32774 1.41249,2.09048 0.86162,0.77687 1.92099,1.11587 1.05937,0.32487 2.09048,0.32487 0.98875,0 1.94924,-0.29662 0.97462,-0.29662 1.79386,-0.80512 0.69212,-0.40962 1.28537,-0.87574 0.59325,-0.46613 0.97462,-0.80512 h 0.56499 v 5.02846 q -0.79099,0.35312 -1.51136,0.66387 -0.72037,0.31075 -1.51137,0.53675 -1.03111,0.29662 -1.93511,0.45199 -0.90399,0.15538 -2.48598,0.15538 z m 30.28379,-0.40962 h -5.42396 v -9.26594 h -8.00882 v 9.26594 h -5.42396 v -21.03198 h 5.42396 v 7.69807 h 8.00882 v -7.69807 h 5.42396 z m 16.73801,0 h -12.31692 v -3.72898 h 3.44648 v -13.57403 h -3.44648 v -3.72897 h 12.31692 v 3.72897 h -3.44648 v 13.57403 h 3.44648 z m 23.54621,0 h -5.22621 l -8.92694,-14.43565 v 14.43565 h -4.97197 v -21.03198 h 6.48333 l 7.66982,12.04854 v -12.04854 h 4.97197 z m 20.57998,0 h -15.21252 v -21.03198 h 15.21252 v 4.06797 h -9.81681 v 3.6301 h 9.11056 v 4.06797 h -9.11056 v 5.19796 h 9.81681 z"
           id="path1" /><path
           d="M 70.091223,244.32638 H 54.921078 V 223.2944 h 5.423962 v 16.964 h 9.746183 z m 18.475371,0 H 73.354075 V 223.2944 h 15.212519 v 4.06797 h -9.816807 v 3.6301 h 9.110562 v 4.06797 h -9.110562 v 5.19796 h 9.816807 z m 23.984086,0 h -5.60759 l -1.45486,-4.2516 h -7.796951 l -1.454865,4.2516 h -5.466337 l 7.768697,-21.03198 h 6.243206 z m -8.37607,-8.1077 -2.58486,-7.5427 -2.584855,7.5427 z m 23.19309,-6.48333 q 0,-0.79099 -0.32487,-1.35599 -0.32488,-0.565 -1.11587,-0.88987 -0.55087,-0.226 -1.28537,-0.26837 -0.73449,-0.0565 -1.70911,-0.0565 h -1.96336 v 5.66408 h 1.66674 q 1.29949,0 2.17523,-0.12712 0.87575,-0.12712 1.46899,-0.57912 0.565,-0.43787 0.81925,-0.96049 0.26837,-0.53675 0.26837,-1.42662 z m 8.46082,14.59103 h -6.62458 l -5.73471,-7.7122 h -2.50011 v 7.7122 h -5.39571 V 223.2944 h 9.09643 q 1.86449,0 3.20636,0.21187 1.34186,0.21187 2.51423,0.91812 1.18649,0.70624 1.87861,1.83624 0.70625,1.11586 0.70625,2.81085 0,2.33061 -1.08762,3.7996 -1.07349,1.46899 -3.07923,2.44361 z m 21.4981,0 h -5.22621 l -8.92694,-14.43565 v 14.43565 H 138.2015 V 223.2944 h 6.48333 l 7.66983,12.04854 V 223.2944 h 4.97196 z m 16.73801,0 h -12.31692 v -3.72898 h 3.44648 v -13.57403 h -3.44648 v -3.72897 h 12.31692 v 3.72897 h -3.44648 v 13.57403 h 3.44648 z m 23.54621,0 h -5.22621 l -8.92694,-14.43565 v 14.43565 h -4.97197 V 223.2944 h 6.48333 l 7.66982,12.04854 V 223.2944 h 4.97197 z m 23.96995,-1.20062 q -1.41249,0.55087 -3.74309,1.10174 -2.33061,0.53675 -4.6471,0.53675 -5.36746,0 -8.40431,-2.90973 -3.03686,-2.92386 -3.03686,-8.06532 0,-4.90134 3.06511,-7.89582 3.0651,-3.00861 8.54556,-3.00861 2.07636,0 3.95497,0.38138 1.87862,0.36724 4.18097,1.48311 v 4.92959 h -0.60737 q -0.39549,-0.29662 -1.15824,-0.83337 -0.76274,-0.55087 -1.46899,-0.93224 -0.81924,-0.452 -1.92098,-0.77687 -1.08762,-0.32487 -2.31649,-0.32487 -1.44074,0 -2.61311,0.42374 -1.17236,0.42375 -2.10461,1.29949 -0.88986,0.8475 -1.41249,2.16111 -0.50849,1.2995 -0.50849,3.00861 0,3.48885 1.85036,5.33921 1.85036,1.85036 5.46634,1.85036 0.31074,0 0.67799,-0.0141 0.38137,-0.0141 0.69212,-0.0424 v -4.12447 h -4.19509 v -3.96909 h 9.7038 z"
           id="path2" /></g></g></g></svg>
